<svg width="27" height="29" fill="none" xmlns="http://www.w3.org/2000/svg"><path d="M10.3 0h13.75c.23.062.46.108.684.187 1.38.47 2.26 1.715 2.26 3.215.007 4.082 0 8.169 0 12.25 0 .974.018 1.942-.01 2.915-.052 1.727-1.514 3.159-3.268 3.165-4.36.017-8.721.017-13.082 0-1.766-.006-3.262-1.495-3.262-3.233-.011-5.083-.011-10.166 0-15.25.006-1.047.478-1.902 1.312-2.558C9.167.317 9.73.147 10.3 0z" fill="#68E1FC"/><path d="M2.937 28.983c-.575-.142-1.14-.317-1.611-.69-.846-.67-1.312-1.53-1.317-2.589-.012-5.462-.012-10.925 0-16.382 0-1.766 1.46-3.22 3.256-3.266.742-.017 1.49-.006 2.26-.006v12.307c0 2.553 1.738 4.63 4.286 5.111a5.83 5.83 0 001.088.085c3.607.006 7.208.006 10.815.006h.38c0 .311.011.611 0 .911-.03.657.028 1.336-.116 1.97-.316 1.382-1.254 2.197-2.657 2.502a.892.892 0 00-.156.057c-5.413-.017-10.82-.017-16.228-.017z" fill="#68E1FC"/></svg>