<svg width="21" height="20" fill="none" xmlns="http://www.w3.org/2000/svg"><path d="M0 15.929c.137-.161.259-.337.41-.483a4560.37 4560.37 0 016.873-6.873c.112-.113.137-.2.093-.357-.63-2.396-.122-4.53 1.606-6.297C10.466.396 12.326-.228 14.439.074c2.407.347 4.13 1.68 5.057 3.915.894 2.158.635 4.262-.712 6.19-.996 1.425-2.387 2.274-4.1 2.577a6.065 6.065 0 01-2.837-.176c-.17-.053-.283-.024-.405.103-.405.415-.825.81-1.23 1.225a.826.826 0 01-.66.269c-.297-.015-.595-.005-.922-.005v.942c0 .556-.258.78-.805.712a26.42 26.42 0 00-.737-.078c-.034.337-.069.664-.093.996-.039.566-.215.742-.781.786-.322.024-.644.059-.996.093.025.244.034.483.078.717a.77.77 0 01-.258.772c-.186.166-.347.351-.528.522-.141.132-.297.244-.444.366H.434l-.43-.43C0 18.35 0 17.14 0 15.93zM16.963 4.775a1.749 1.749 0 00-1.753-1.743c-.961 0-1.747.781-1.752 1.748a1.747 1.747 0 001.762 1.752 1.753 1.753 0 001.743-1.757z" fill="#68E1FC"/><path d="M0 19.56l.43.43H0v-.43z" fill="#fff"/></svg>